<svg xmlns="http://www.w3.org/2000/svg" viewBox="0 0 4615.83 986.64"><title>Asset 6</title><g id="Layer_2" data-name="Layer 2"><g id="Layer_1-2" data-name="Layer 1"><path d="M0,257.74V518.36c0,7.2,1.44,14.4,2.88,21.6a185.57,185.57,0,0,0,38.88,83.51c8.64,8.64,17.28,17.28,27.36,24.48,23,17.28,51.84,27.36,80.63,30.24h80.63V609.07H154.07a95.57,95.57,0,0,1-28.8-8.64,88.42,88.42,0,0,1-36-33.12,120.67,120.67,0,0,1-20.16-59V244.78H227.5V175.67H69.11V0H0Z"/><path d="M1612.66,254.86V514c0,30.24,8.64,59,24.48,85,10.08,15.84,23,30.24,37.44,43.2,23,18.72,50.4,31.68,80.63,34.56,17.28,1.44,36,2.88,54.72,1.44h34.56V609.07h-77.75a87.92,87.92,0,0,1-63.35-38.88c-13-17.28-20.16-38.88-21.6-61.91V244.78h158.39V175.67H1681.78V0h-69.11Z"/><path d="M2493.87,374.37V748.74h2119.5V0H4462.18V493.88c0,20.16-4.32,38.88-11.52,57.6a211.32,211.32,0,0,1-34.56,57.6c-5.76,7.2-13,13-18.72,18.72-27.36,23-61.91,36-96.47,36H4056.14c-38.88,0-76.31-14.4-106.55-40.32-5.76-5.76-13-13-17.28-18.72-18.72-23-28.8-51.84-31.68-82.07-1.44-8.64-1.44-5.76-1.44-105.11,0-100.79,0-95,1.44-105.11a161,161,0,0,1,60.48-116.63c24.48-20.16,56.16-31.68,87.83-34.56h276.46v69.11H4054.7a119.53,119.53,0,0,0-30.24,8.64c-14.4,7.2-27.36,20.16-36,34.56-10.08,14.4-15.84,31.68-18.72,49-1.44,8.64-1.44,1.44-1.44,90.71v93.59a112.27,112.27,0,0,0,28.8,61.91c14.4,14.4,33.12,24.48,53.28,25.92H4180c129.59,0,119.51,0,128.15-1.44a100.73,100.73,0,0,0,49-21.6l13-13c10.08-11.52,15.84-24.48,20.16-38.88,1.44-5.76,2.88-10.08,2.88-15.84V0H2493.87Zm637.87-184.3v34.56H2799.12c-25.92,1.44-50.4,15.84-64.79,37.44-13,17.28-21.6,37.44-23,59v63.35h417.56v69.11H2711.29v41.76a51.77,51.77,0,0,0,2.88,15.84c2.88,14.4,10.08,28.8,18.72,41.76,10.08,14.4,23,25.92,38.88,33.12,8.64,2.88,17.28,5.76,27.36,7.2h334.05v69.11H2796.24l-11.52-1.44c-30.24-2.88-57.6-15.84-80.63-34.56-4.32-2.88-7.2-7.2-11.52-10.08a167.26,167.26,0,0,1-49-108c-1.44-8.64-1.44-7.2-1.44-100.79s0-92.15,1.44-100.79c4.32-49,28.8-93.59,67.67-122.39a161.35,161.35,0,0,1,87.83-30.24h335.49v36Zm505.4-27.36c7.2,0,13,1.44,18.72,1.44,31.68,5.76,61.91,20.16,85,43.2,17.28,15.84,30.24,36,40.32,57.6,8.64,20.16,14.4,43.2,14.4,64.79V662.34H3726.4V322.53c0-5.76-1.44-13-2.88-18.72a110.58,110.58,0,0,0-20.16-36c-4.32-4.32-7.2-8.64-11.52-11.52-15.84-13-34.56-21.6-56.16-23H3390.91c-20.16,1.44-40.32,10.08-56.16,23l-13,13a89.23,89.23,0,0,0-23,59V665.22h-69.11V324c0-38.88,15.84-76.31,41.76-106.55,2.88-2.88,11.52-13,15.84-15.84a152.51,152.51,0,0,1,17.28-14.4c25.92-17.28,57.6-25.92,87.83-25.92h123.83c89.27,1.44,119.51,1.44,120.95,1.44Z"/><path d="M336.93,341.25V678.18H406v-432h285.1c17.28,1.44,33.12,8.64,46.08,18.72A123.87,123.87,0,0,1,766,302.37c5.76,13,10.08,25.92,11.52,38.88V678.18h69.11V341.25a177.4,177.4,0,0,0-20.16-82.07c-13-23-30.24-43.2-51.84-57.6a109,109,0,0,0-25.92-13c-18.72-7.2-37.44-11.52-57.6-11.52H406V4.32H336.93Z"/><path d="M1018,204.46V239h332.61a96.14,96.14,0,0,1,51.84,20.16l13,13c11.52,13,18.72,28.8,23,46.08v2.88h-347c-8.64,0-13,1.44-18.72,1.44-30.24,4.32-59,18.72-82.07,40.32-4.32,2.88-13,11.52-15.84,15.84a159,159,0,0,0-38.88,85c-1.44,8.64-1.44,17.28-1.44,25.92-1.44,41.76,8.64,82.07,31.68,118.07a124.14,124.14,0,0,0,20.16,25.92c24.48,24.48,56.16,38.88,90.71,43.2l13,1.44h250.54V609.07H1095.75c-25.92-1.44-50.4-14.4-67.67-36-5.76-7.2-10.08-14.4-14.4-21.6-1.44-4.32-4.32-8.64-5.76-13-4.32-13-5.76-25.92-5.76-38.88,0-14.4,2.88-27.36,7.2-41.76,5.76-18.72,17.28-36,33.12-47.52s36-18.72,54.72-18.72h338.37V678.18h69.11V325.41c0-8.64-1.44-14.4-2.88-21.6-4.32-25.92-15.84-50.4-31.68-72a140.44,140.44,0,0,0-54.72-46.08c-18.72-10.08-40.32-14.4-60.47-15.84H1018Z"/><path d="M2040.31,169.91a117.1,117.1,0,0,0-87.83,44.64c-20.16,24.48-31.68,56.16-33.12,89.27v23c1.44,18.72,5.76,37.44,14.4,53.28,8.64,18.72,21.6,34.56,37.44,49a120.09,120.09,0,0,0,66.23,24.48h257.74c17.28,0,33.12,8.64,41.76,23a103.73,103.73,0,0,1,13,64.79c-1.44,11.52-4.32,24.48-8.64,34.56-10.08,18.72-30.24,31.68-51.84,31.68H1939.51v69.11h367.17c31.68,0,61.91-15.84,82.07-40.32,5.76-7.2,10.08-13,14.4-21.6,1.44-4.32,5.76-10.08,7.2-14.4,8.64-20.16,13-41.76,14.4-64.79,1.44-25.92-1.44-51.84-13-76.31a132.28,132.28,0,0,0-37.44-50.4c-20.16-15.84-44.64-25.92-69.11-25.92H2047.51c-5.76,0-10.08-1.44-15.84-2.88-7.2-2.88-13-5.76-17.28-11.52-2.88-2.88-4.32-5.76-7.2-8.64-7.2-11.52-13-25.92-13-38.88v-23a57.67,57.67,0,0,1,17.28-41.76c11.52-11.52,27.36-17.28,43.2-17.28H2406V168.47l-365.73,1.44Z"/><path d="M2892.8,838.13h123.38a235.9,235.9,0,0,1,25.82,1.19,82.2,82.2,0,0,1,17.37,3.57,28.83,28.83,0,0,1,10.53,5.9,21.22,21.22,0,0,1,5.4,8.27,36.21,36.21,0,0,1,2,10.65q.27,5.9.27,13,0,7.42-.37,13.69a35.36,35.36,0,0,1-2.46,11.36,23.17,23.17,0,0,1-6.63,8.94q-4.55,3.85-12.94,6.42a114.66,114.66,0,0,1-21.28,3.9,315.94,315.94,0,0,1-31.7,1.33h-88.85v57.81H2892.8Zm20.53,73h88.85q13.68,0,23-.43a115,115,0,0,0,15.45-1.57,27.29,27.29,0,0,0,9.41-3.23,12.54,12.54,0,0,0,4.87-5.52,23,23,0,0,0,1.82-8.22q.27-4.8.27-11.46,0-6.18-.27-10.65a19,19,0,0,0-1.82-7.51,11.4,11.4,0,0,0-4.87-4.85,30.49,30.49,0,0,0-9.41-2.81,121.44,121.44,0,0,0-15.45-1.28q-9.36-.29-23-.29h-88.85Z"/><path d="M3334.54,838.13h21.16l-86.16,146.06h-30.11l-86.22-146.06H3177L3255.82,972Z"/><path d="M3625.74,838.13v15.21h-82.11V984.19H3523.1V853.34H3441V838.13Z"/><path d="M3831.79,984.19V838.13h20.53V969h130v15.21Z"/><path d="M4249.58,838.13v15.21h-82.11V984.19h-20.53V853.34h-82.11V838.13Z"/><path d="M4345.76,984.19V838.13h123.06a217.1,217.1,0,0,1,31.7,1.95q12.88,2,21.28,5.94a34.35,34.35,0,0,1,12.94,10,39.16,39.16,0,0,1,6.63,14.12,87,87,0,0,1,2.46,18.35q.37,10.22.37,22.68t-.37,22.68a87,87,0,0,1-2.46,18.35,39.15,39.15,0,0,1-6.63,14.12,34.35,34.35,0,0,1-12.94,10q-8.4,4-21.28,5.94a216.81,216.81,0,0,1-31.7,1.95ZM4468.83,969q13.58,0,23-.67a63.78,63.78,0,0,0,15.5-2.71,20.59,20.59,0,0,0,9.41-5.94,24.61,24.61,0,0,0,4.86-10.32,78,78,0,0,0,1.82-15.78q.27-9.37.27-22.39t-.27-22.39a78,78,0,0,0-1.82-15.79,24.62,24.62,0,0,0-4.86-10.32,20.61,20.61,0,0,0-9.41-5.94,63.75,63.75,0,0,0-15.45-2.71q-9.36-.66-23-.67H4366.29V969Z"/><path d="M3662.66,986.64h-20.53V968.38h20.53Z"/><path d="M4615.83,980.52H4595.3V962.26h20.53Z"/></g></g></svg>